<?xml version="1.0" standalone="no"?>
<!DOCTYPE svg PUBLIC "-//W3C//DTD SVG 20010904//EN"
 "http://www.w3.org/TR/2001/REC-SVG-20010904/DTD/svg10.dtd">
<svg version="1.0" xmlns="http://www.w3.org/2000/svg"
 width="800.000000pt" height="600.000000pt" viewBox="0 0 800.000000 600.000000"
 preserveAspectRatio="xMidYMid meet">

<g transform="translate(0.000000,600.000000) scale(0.100000,-0.100000)"
fill="#000000" stroke="none">
<path d="M1762 5102 c3 -9 78 -108 176 -233 34 -45 62 -85 62 -90 0 -5 9 -18
20 -29 11 -11 58 -72 105 -134 46 -63 89 -117 95 -121 5 -3 19 -23 30 -43 10
-20 35 -55 55 -77 20 -22 45 -56 56 -77 10 -20 22 -38 27 -40 5 -1 48 -55 95
-120 47 -64 91 -119 97 -123 5 -3 19 -23 29 -43 11 -21 30 -48 43 -62 14 -14
38 -45 54 -70 26 -41 72 -102 189 -251 22 -28 50 -68 62 -88 12 -20 40 -56 61
-81 21 -25 49 -61 63 -80 13 -19 47 -64 74 -100 28 -36 63 -84 79 -108 16 -23
40 -54 53 -68 13 -15 36 -45 50 -68 14 -22 38 -54 53 -71 15 -16 44 -54 64
-82 l36 -52 -23 -33 c-12 -18 -47 -58 -77 -89 -30 -31 -82 -85 -114 -120 -33
-35 -80 -86 -106 -114 -26 -27 -104 -112 -174 -188 -70 -76 -135 -146 -144
-156 -19 -20 -113 -121 -205 -221 -33 -36 -81 -87 -107 -115 -25 -27 -158
-171 -295 -320 -137 -148 -272 -295 -301 -325 -133 -142 -180 -193 -187 -206
-7 -12 21 -14 177 -14 101 0 191 3 200 6 8 3 88 85 178 182 89 98 165 179 168
182 3 3 142 154 310 335 167 182 329 357 361 390 31 33 83 89 115 124 33 35
73 79 89 97 112 121 218 235 266 287 l57 60 21 -39 c12 -21 40 -62 64 -91 23
-28 65 -82 92 -119 28 -37 55 -72 60 -78 6 -6 22 -29 36 -52 15 -22 44 -61 65
-86 22 -26 48 -60 59 -77 36 -54 197 -266 210 -276 6 -5 19 -25 29 -42 9 -18
37 -55 61 -83 25 -28 45 -55 45 -60 0 -6 15 -27 33 -47 18 -21 62 -78 98 -128
35 -49 72 -98 81 -107 9 -9 23 -30 31 -45 8 -15 33 -48 54 -73 22 -25 51 -61
64 -81 13 -20 49 -68 79 -108 l54 -71 668 0 c368 0 668 4 668 8 0 8 -58 88
-92 127 -10 11 -30 39 -45 61 -16 23 -46 65 -68 93 -107 137 -163 212 -199
264 -21 31 -42 57 -46 57 -4 0 -19 22 -34 50 -15 27 -31 52 -37 56 -6 3 -49
58 -96 122 -47 65 -90 119 -95 120 -5 2 -17 20 -27 40 -11 21 -39 60 -63 89
-23 29 -52 65 -63 82 -37 55 -198 266 -216 284 -11 10 -19 22 -19 26 0 5 -19
33 -42 61 -24 29 -54 69 -68 90 -14 20 -72 99 -130 175 -58 76 -118 157 -135
181 -16 23 -48 64 -70 92 -22 27 -80 105 -130 173 -49 67 -105 140 -122 162
-18 21 -33 44 -33 49 0 6 28 39 63 73 58 60 120 125 240 256 29 31 79 85 112
121 126 136 173 187 280 302 131 143 219 238 260 281 17 17 66 71 110 119 44
49 96 105 115 126 91 96 331 355 419 453 l25 27 -200 -1 -199 -1 -134 -146
c-74 -81 -184 -201 -245 -267 -61 -65 -138 -148 -171 -184 -33 -36 -80 -86
-105 -112 -25 -26 -79 -84 -120 -130 -41 -46 -91 -100 -110 -120 -19 -20 -73
-78 -120 -129 -47 -51 -101 -109 -120 -129 -56 -59 -236 -254 -259 -281 -13
-16 -23 -21 -28 -15 -5 6 -23 33 -42 60 -19 28 -53 73 -76 100 -22 28 -54 71
-71 97 -16 27 -32 48 -35 48 -4 0 -24 26 -45 57 -22 32 -43 63 -49 69 -5 6
-32 41 -60 78 -27 37 -68 90 -90 118 -22 27 -49 65 -61 84 -11 19 -36 51 -54
72 -18 20 -45 55 -59 77 -14 22 -30 45 -36 51 -5 6 -32 41 -60 78 -27 37 -68
90 -90 118 -22 28 -51 67 -65 88 -14 21 -48 69 -77 106 -29 38 -67 89 -85 113
-18 24 -44 56 -56 72 l-24 29 -670 0 c-368 0 -668 -4 -666 -8z m1202 -299 c8
-16 27 -42 43 -59 15 -16 69 -86 118 -153 50 -68 107 -144 128 -170 20 -25 54
-71 74 -101 20 -30 42 -59 49 -65 7 -5 37 -45 67 -87 61 -86 113 -155 170
-226 20 -26 54 -72 74 -102 20 -30 39 -57 43 -60 8 -6 170 -223 220 -294 20
-28 48 -64 64 -81 15 -16 37 -47 47 -67 10 -20 24 -40 29 -43 6 -4 49 -58 95
-120 46 -62 88 -116 94 -120 6 -3 20 -23 30 -43 11 -20 36 -56 57 -80 21 -23
47 -58 58 -76 28 -45 199 -270 209 -274 4 -2 16 -20 26 -40 11 -21 37 -57 58
-82 22 -25 51 -61 64 -81 39 -59 201 -273 213 -284 7 -5 29 -35 49 -65 20 -30
54 -76 74 -102 58 -72 145 -188 175 -234 15 -22 40 -54 55 -70 14 -16 38 -47
52 -70 14 -23 44 -64 66 -92 22 -28 63 -81 90 -118 28 -37 55 -72 60 -78 6 -6
21 -28 34 -48 l23 -38 -309 0 -308 0 -20 34 c-11 19 -47 68 -80 110 -126 160
-141 179 -162 215 -12 20 -40 56 -61 81 -21 25 -47 59 -57 75 -11 17 -45 62
-77 102 -32 39 -58 75 -58 78 0 8 -58 85 -76 100 -6 6 -28 35 -48 65 -19 30
-53 76 -73 102 -58 72 -145 188 -175 234 -15 22 -39 53 -53 68 -14 15 -41 51
-60 79 -19 29 -52 73 -72 98 -21 26 -60 79 -88 118 -27 39 -53 70 -57 71 -4 0
-16 17 -27 38 -11 20 -39 60 -63 89 -23 29 -52 65 -63 82 -35 52 -194 260
-215 281 -11 11 -20 24 -20 29 0 5 -19 33 -42 61 -24 29 -54 69 -68 90 -14 21
-43 60 -65 87 -53 66 -167 220 -182 247 -7 11 -35 48 -63 81 -28 33 -59 74
-67 90 -9 17 -22 35 -28 40 -13 11 -174 224 -214 284 -13 20 -42 56 -64 81
-21 25 -46 59 -55 75 -8 17 -21 35 -27 40 -22 18 -233 304 -234 318 -1 4 136
7 304 7 l304 0 15 -27z"/>
</g>
</svg>
